<svg xmlns="http://www.w3.org/2000/svg" width="752" height="32"><svg id="icon-alert-circle" viewBox="0 0 32 32"><path fill="none" stroke-linejoin="round" stroke-linecap="round" stroke-width="2.667" d="M16 29.333c7.364 0 13.333-5.97 13.333-13.333S23.363 2.667 16 2.667C8.636 2.667 2.667 8.636 2.667 16S8.636 29.333 16 29.333zm0-18.666V16m0 5.333h.013"/></svg><svg id="icon-chevron-down" viewBox="0 0 32 32"><path fill="none" stroke-linejoin="round" stroke-linecap="round" stroke-width="2.667" d="m8 12 8 8 8-8"/></svg><svg id="icon-Logomark" viewBox="0 0 32 32"><path d="M16 32C7.177 32 0 24.823 0 16S7.177 0 16 0s16 7.177 16 16-7.177 16-16 16zm0-29.69C8.452 2.31 2.31 8.451 2.31 16S8.451 29.69 16 29.69 29.69 23.549 29.69 16 23.549 2.31 16 2.31z"/><path d="m12.394 10.667 3.191 10.417h.119l3.191-10.417h3.86L17.94 24.889h-4.592L8.533 10.667h3.86z"/></svg><svg id="icon-Logotype" viewBox="0 0 69 32"><path d="m3.07 0 2.538 8.359h.094L8.24 0h3.07L7.481 11.413H3.83L.001 0h3.07zm12.412 11.575c-.894 0-1.662-.184-2.305-.552a3.8 3.8 0 0 1-1.479-1.549c-.344-.665-.515-1.436-.515-2.313 0-.88.172-1.651.515-2.313a3.75 3.75 0 0 1 1.479-1.549c.643-.372 1.411-.557 2.305-.557s1.66.186 2.299.557a3.702 3.702 0 0 1 1.479 1.549c.347.661.521 1.432.521 2.313 0 .877-.174 1.648-.521 2.313a3.749 3.749 0 0 1-1.479 1.549c-.639.368-1.405.552-2.299.552zm.017-2.057c.325 0 .6-.1.826-.301s.397-.479.515-.836a3.82 3.82 0 0 0 .183-1.237c0-.476-.061-.892-.183-1.248-.118-.357-.29-.635-.515-.836s-.501-.301-.826-.301c-.336 0-.621.1-.853.301-.229.201-.404.479-.526.836a3.981 3.981 0 0 0-.177 1.248c0 .468.059.88.177 1.237.122.357.297.635.526.836.233.201.517.301.853.301zm9.644 2.057c-.894 0-1.662-.184-2.305-.552a3.8 3.8 0 0 1-1.479-1.549c-.344-.665-.515-1.436-.515-2.313 0-.88.172-1.651.515-2.313a3.75 3.75 0 0 1 1.479-1.549c.643-.372 1.411-.557 2.305-.557s1.66.186 2.299.557a3.702 3.702 0 0 1 1.479 1.549c.347.661.521 1.432.521 2.313 0 .877-.174 1.648-.521 2.313a3.749 3.749 0 0 1-1.479 1.549c-.639.368-1.405.552-2.299.552zm.016-2.057c.325 0 .6-.1.826-.301s.397-.479.515-.836a3.82 3.82 0 0 0 .183-1.237c0-.476-.061-.892-.183-1.248-.118-.357-.29-.635-.515-.836s-.501-.301-.826-.301c-.336 0-.621.1-.853.301-.229.201-.404.479-.526.836a3.981 3.981 0 0 0-.177 1.248c0 .468.059.88.177 1.237.122.357.297.635.526.836.233.201.517.301.853.301zm9.865 1.895H30.83V0h4.189c1.156 0 2.152.228 2.986.685a4.663 4.663 0 0 1 1.939 1.962c.454.851.682 1.869.682 3.054 0 1.189-.227 2.211-.682 3.065a4.669 4.669 0 0 1-1.934 1.967c-.839.453-1.834.68-2.986.68zm-1.451-2.352h1.346c.635 0 1.173-.108 1.612-.323.443-.219.778-.574 1.003-1.064.229-.494.343-1.152.343-1.973s-.114-1.475-.343-1.962c-.229-.49-.567-.843-1.014-1.059-.443-.219-.99-.329-1.64-.329h-1.308v6.71zM46.2 11.575c-.894 0-1.662-.184-2.305-.552a3.8 3.8 0 0 1-1.479-1.549c-.343-.665-.515-1.436-.515-2.313 0-.88.172-1.651.515-2.313a3.75 3.75 0 0 1 1.479-1.549c.643-.372 1.411-.557 2.305-.557s1.66.186 2.299.557a3.702 3.702 0 0 1 1.479 1.549c.347.661.521 1.432.521 2.313 0 .877-.174 1.648-.521 2.313a3.749 3.749 0 0 1-1.479 1.549c-.639.368-1.405.552-2.299.552zm.017-2.057c.325 0 .6-.1.826-.301s.397-.479.515-.836a3.82 3.82 0 0 0 .183-1.237c0-.476-.061-.892-.183-1.248-.118-.357-.29-.635-.515-.836s-.501-.301-.826-.301c-.336 0-.621.1-.853.301-.229.201-.404.479-.526.836a3.981 3.981 0 0 0-.177 1.248c0 .468.059.88.177 1.237.122.357.297.635.526.836.233.201.517.301.853.301zm9.643 2.057c-.894 0-1.662-.184-2.305-.552a3.8 3.8 0 0 1-1.479-1.549c-.343-.665-.515-1.436-.515-2.313 0-.88.172-1.651.515-2.313a3.75 3.75 0 0 1 1.479-1.549c.643-.372 1.411-.557 2.305-.557s1.66.186 2.299.557a3.702 3.702 0 0 1 1.479 1.549c.347.661.521 1.432.521 2.313 0 .877-.174 1.648-.521 2.313a3.755 3.755 0 0 1-1.479 1.549c-.639.368-1.405.552-2.299.552zm.017-2.057c.325 0 .6-.1.826-.301s.397-.479.515-.836a3.82 3.82 0 0 0 .183-1.237c0-.476-.061-.892-.183-1.248-.118-.357-.29-.635-.515-.836s-.501-.301-.826-.301c-.336 0-.621.1-.853.301-.229.201-.404.479-.526.836a3.981 3.981 0 0 0-.177 1.248c0 .468.059.88.177 1.237.122.357.297.635.526.836.233.201.517.301.853.301zM.122 21.386v-2.24h9.591v2.24H6.272v9.173H3.568v-9.173H.122zm13.674 9.334c-.89 0-1.659-.176-2.305-.529a3.654 3.654 0 0 1-1.485-1.521c-.344-.661-.515-1.447-.515-2.357 0-.884.174-1.657.521-2.318a3.776 3.776 0 0 1 1.468-1.549c.632-.372 1.376-.557 2.233-.557.606 0 1.16.095 1.662.284s.936.47 1.302.841.65.83.853 1.376c.203.542.305 1.165.305 1.867v.68h-7.397v-1.583h4.876c-.004-.29-.072-.548-.205-.775s-.316-.403-.549-.529a1.576 1.576 0 0 0-.792-.195c-.303 0-.574.069-.815.206a1.52 1.52 0 0 0-.571.552c-.14.23-.214.492-.222.786v1.611c0 .349.068.656.205.92.137.26.331.463.582.607s.55.217.898.217c.24 0 .458-.033.654-.1s.364-.165.504-.295c.14-.13.246-.29.316-.479l2.488.072a3.108 3.108 0 0 1-.681 1.466c-.347.412-.803.734-1.369.964-.565.227-1.219.34-1.961.34zm12.854-6.108-2.488.067a.938.938 0 0 0-.211-.474 1.13 1.13 0 0 0-.449-.329 1.52 1.52 0 0 0-.632-.123c-.314 0-.582.063-.803.189-.218.126-.325.297-.321.513a.55.55 0 0 0 .199.435c.14.123.39.221.748.295l1.64.312c.85.163 1.481.435 1.895.814.417.379.628.881.632 1.505a2.425 2.425 0 0 1-.521 1.533c-.34.435-.805.773-1.396 1.014-.591.238-1.267.357-2.028.357-1.215 0-2.174-.251-2.876-.752-.698-.505-1.097-1.181-1.197-2.028l2.676-.067c.059.312.212.55.46.713s.563.245.947.245c.347 0 .63-.065.848-.195s.329-.303.332-.518a.554.554 0 0 0-.255-.463c-.166-.119-.427-.212-.781-.279l-1.485-.284c-.853-.156-1.489-.444-1.906-.864-.417-.424-.624-.962-.621-1.616-.004-.572.148-1.061.454-1.466.307-.409.742-.721 1.308-.936s1.232-.323 2-.323c1.152 0 2.061.243 2.726.73.665.483 1.032 1.148 1.103 1.995zm6.348-2.613v2.006h-5.369v-2.006h5.369zm-4.244-2.051h2.709v7.919c0 .167.026.303.078.407.055.1.135.173.238.217.103.041.227.061.371.061.103 0 .212-.009.327-.028a4.52 4.52 0 0 0 .266-.056l.41 1.967c-.129.037-.312.084-.549.139a4.526 4.526 0 0 1-.837.106c-.635.03-1.18-.045-1.635-.223a2.118 2.118 0 0 1-1.036-.847c-.236-.383-.351-.864-.344-1.443v-8.22z"/></svg><svg id="icon-shopping-cart" width="24" height="24" viewBox="0 0 32 32"><path d="M2.667 4c0-.736.597-1.333 1.333-1.333h2.667c.659 0 1.206.478 1.314 1.106l.001.008.481 2.886H28a1.333 1.333 0 0 1 1.262 1.764l.003-.009-4 12a1.336 1.336 0 0 1-1.265.912H9.333a1.334 1.334 0 0 1-1.314-1.106l-.001-.008L5.537 5.334H4a1.333 1.333 0 0 1-1.333-1.333zm6.24 5.333 1.555 9.333h12.576l3.111-9.333H8.906zM8 26.667a2.667 2.667 0 1 1 5.334 0 2.667 2.667 0 0 1-5.334 0zm12 0a2.667 2.667 0 1 1 5.334 0 2.667 2.667 0 0 1-5.334 0z"/></svg><svg id="icon-close" width="24" height="24" viewBox="0 0 32 32" x="0" y="0"><path d="m16 14.115 6.6-6.6L24.485 9.4l-6.6 6.6 6.6 6.6-1.885 1.885-6.6-6.6-6.6 6.6L7.515 22.6l6.6-6.6-6.6-6.6L9.4 7.515l6.6 6.6z"/></svg><svg id="icon-delete-bin" width="24" height="24" viewBox="0 0 32 32" x="0" y="0"><path fill="#fcf7e6" d="M9.333 5.333V2.666h13.333v2.667h6.667V8h-2.667v20c0 .736-.597 1.333-1.333 1.333H6.666A1.333 1.333 0 0 1 5.333 28V8H2.666V5.333h6.667zM8 8v18.667h16V8H8zm4 4h2.667v10.667H12V12zm5.333 0H20v10.667h-2.667V12z"/></svg></svg>